# Blender v2.92.0 OBJ File: ''
# www.blender.org
mtllib rock.mtl
o Cube
v 0.690280 0.207245 -0.590270
v 0.535535 -0.584673 -0.760514
v 0.640716 -0.592209 -0.737320
v 0.692223 -0.611145 -0.713157
v 0.756062 0.454895 0.655662
v 0.703307 0.721651 0.542991
v 0.517286 0.806880 0.664795
v 0.647232 -0.615107 0.532748
v 0.696061 -0.536439 0.527939
v 0.611957 -0.561900 0.612821
v 0.595734 -0.619019 0.585354
v -0.323098 0.825301 -0.625477
v -0.210097 0.489787 -0.909003
v -0.729431 0.466767 -0.695746
v -0.761122 0.543058 -0.624431
v -0.762961 0.644171 -0.555358
v -0.714428 0.745656 -0.487447
v -0.629314 0.774067 -0.528364
v -0.461088 0.806526 -0.578324
v -0.641649 -0.632400 -0.538973
v -0.710981 -0.747371 -0.061296
v -0.701470 -0.558034 -0.555245
v -0.669547 -0.518374 -0.630195
v -0.588750 -0.543818 -0.667069
v -0.562907 -0.651011 -0.564667
v -0.696861 0.699093 0.534611
v -0.554714 0.684054 0.704564
v -0.518438 0.781508 0.650084
v -0.655477 -0.666161 0.385556
v -0.485598 -0.756533 0.583201
v -0.475291 -0.715663 0.714142
v -0.416621 -0.618126 0.867526
v -0.816880 -0.410125 0.449729
v -0.006508 -0.796886 -0.457407
v -0.477613 -0.818592 0.286410
v 0.000419 -0.452908 -0.825588
v 0.814289 -0.354918 -0.577221
v 0.488884 -0.170010 -0.765799
v 0.474754 0.183841 -0.787366
v -0.477073 0.247913 0.759697
v 0.573795 -0.192117 0.763391
v -0.840502 -0.291304 -0.503533
v -0.788094 0.502949 -0.529607
v 0.006372 0.438949 0.971896
v -0.203494 -0.515742 0.946037
v 0.116087 0.932519 -0.503072
v 0.942423 -0.453038 -0.246718
v 0.933358 -0.462218 -0.137794
v 0.819292 -0.457261 0.358705
v -0.081821 -0.956435 0.048819
v 0.454702 -0.928310 0.103188
v 0.076007 -0.961618 0.154218
v 0.367744 -0.944242 0.153068
v -0.929897 -0.340373 0.127710
v -0.901388 -0.011548 0.118773
v -0.871412 0.475127 0.131736
v -0.876186 -0.378239 -0.314194
v 0.231095 -0.036749 0.882543
v 0.002774 0.034878 0.973300
v -0.079507 -0.105921 0.963079
v -0.059695 0.056060 0.961257
v -0.137205 -0.281766 0.953925
v 0.250070 0.974076 -0.315410
v 0.257433 0.988023 -0.259083
v 0.213724 0.983117 -0.035585
v 0.138036 0.989016 0.224152
v 0.864992 0.110171 -0.277094
v 0.932422 -0.317019 -0.304592
v 0.825865 0.142792 0.139592
v 0.629505 0.642005 -0.658817
v 0.558569 0.631209 -0.710844
v 0.668477 0.671694 -0.594607
v 0.684314 0.615642 -0.590255
v 0.562523 -0.688332 -0.727558
v 0.617769 -0.674378 -0.727817
v 0.810000 -0.680543 -0.516616
v 0.770963 -0.624996 -0.628192
v 0.751892 0.618523 0.575561
v 0.728832 0.569975 0.695115
v 0.619754 0.787014 0.576105
v 0.685292 0.618243 0.731730
v 0.593141 0.668796 0.771550
v -0.643145 0.634331 0.664093
v -0.694318 0.632919 0.592197
v -0.607933 0.854469 0.426141
v -0.638288 -0.531118 0.764218
v -0.729159 -0.479747 0.658538
v -0.565553 -0.619935 0.756617
v -0.686647 -0.582061 0.619124
v -0.525625 -0.859271 0.026860
v -0.708124 -0.668038 0.150755
v -0.810637 -0.642198 -0.088903
v 0.083448 -0.742258 -0.632086
v -0.254095 -0.687700 -0.586595
v -0.209265 -0.602239 -0.696307
v 0.184892 -0.687920 -0.738921
v 0.694328 -0.087318 -0.649661
v 0.723148 -0.276836 -0.679903
v -0.599844 0.173640 0.678800
v -0.664372 -0.074882 0.636886
v 0.612193 0.001779 0.730415
v 0.715638 0.299331 0.680030
v 0.661981 -0.176890 0.723480
v 0.723124 -0.161319 0.679201
v 0.740395 0.066984 0.578777
v 0.756771 -0.264214 0.595639
v -0.629539 0.391044 -0.791248
v -0.620331 -0.125960 -0.817030
v -0.784655 0.073077 -0.586441
v -0.798718 -0.231528 -0.628601
v 0.022934 0.999853 0.510049
v -0.416376 0.907522 0.527809
v -0.449541 0.883796 0.556865
v -0.060925 0.974769 0.698662
v -0.007751 0.879526 0.829728
v 0.002628 0.848534 0.859903
v 0.068313 0.719686 0.933973
v 0.023607 0.612378 0.958302
v 0.582598 0.830598 0.059339
v 0.674035 0.815456 -0.301493
v 0.745875 0.744552 -0.349900
v 0.788238 0.658021 -0.321092
v 0.751968 0.645149 0.037610
v 0.821462 0.546269 -0.296281
v 0.033974 -0.834384 0.599388
v 0.261412 -0.667454 0.672887
v -0.047219 -0.776397 0.714960
v -0.441190 -0.685148 0.776785
v 0.097297 -0.594042 0.783706
v -0.235784 -0.597996 0.926916
v -0.646053 0.760612 -0.163298
v -0.711449 0.796267 0.335715
v -0.722026 0.747329 0.011200
v -0.787723 0.743993 0.178320
v -0.777369 0.716960 -0.054250
v -0.843399 0.596123 0.190274
v -0.809614 0.614502 -0.141617
v 0.064521 0.923518 -0.542886
v -0.090484 0.866488 -0.713379
v -0.009063 0.886109 -0.695386
v -0.005415 0.794146 -0.819182
v 0.030158 0.758516 -0.836673
v 0.307388 0.614548 -0.832236
v 0.000005 0.521002 -0.877943
v 0.335078 0.545770 -0.837646
v 0.577060 -0.826608 -0.201239
v 0.724143 -0.856287 -0.013448
v 0.717148 -0.853816 0.024579
v 0.733967 -0.800591 -0.203278
v 0.731779 -0.700880 0.258158
v 0.866780 -0.677582 0.070523
v 0.778667 -0.732970 -0.431975
v 0.885114 -0.616468 0.082676
v 0.916448 -0.529892 -0.103268
v -0.377727 0.403417 -0.882238
v -0.391534 -0.058826 -0.906795
vt 0.442135 0.171568
vt 0.455809 0.203558
vt 0.426497 0.215526
vt 0.196693 0.734545
vt 0.220756 0.738186
vt 0.225486 0.745095
vt 0.456465 0.896858
vt 0.483770 0.890251
vt 0.506054 0.884593
vt 0.547999 0.877974
vt 0.535035 0.008416
vt 0.522480 0.019770
vt 0.489253 0.033007
vt 0.150349 0.716217
vt 0.167416 0.728008
vt 0.423361 0.759844
vt 0.466177 0.786169
vt 0.491567 0.838535
vt 0.502725 0.875305
vt 0.268549 0.736269
vt 0.659099 0.633127
vt 0.645279 0.577694
vt 0.716276 0.576972
vt 0.716048 0.587208
vt 0.719300 0.619322
vt 0.729610 0.659756
vt 0.622157 0.873712
vt 0.611488 0.881247
vt 0.606550 0.714743
vt 0.652513 0.700326
vt 0.796406 0.688615
vt 0.742277 0.697148
vt 0.618555 0.381569
vt 0.782552 0.550000
vt 0.808898 0.550000
vt 0.609959 0.152721
vt 0.600082 0.126902
vt 0.608781 0.070705
vt 0.750113 0.551719
vt 0.729813 0.550382
vt 0.447552 0.575854
vt 0.429012 0.604581
vt 0.425293 0.582368
vt 0.600985 0.701846
vt 0.574899 0.734795
vt 0.509757 0.720436
vt 0.519870 0.647079
vt 0.517244 0.580468
vt 0.592006 0.572202
vt 0.609514 0.629316
vt 0.604140 0.541818
vt 0.439381 0.526708
vt 0.488281 0.504654
vt 0.576599 0.486055
vt 0.586872 0.476874
vt 0.590111 0.463789
vt 0.595712 0.466249
vt 0.334181 0.525554
vt 0.330180 0.528759
vt 0.317965 0.519571
vt 0.341591 0.530201
vt 0.583024 0.718425
vt 0.585635 0.722638
vt 0.575000 0.726104
vt 0.395281 0.779719
vt 0.402811 0.772189
vt 0.411360 0.763640
vt 0.391679 0.783321
vt 0.613088 0.211911
vt 0.607456 0.217544
vt 0.617236 0.207764
vt 0.610994 0.052405
vt 0.601290 0.082608
vt 0.593477 0.056371
vt 0.582698 0.048486
vt 0.584310 0.034112
vt 0.592048 0.029181
vt 0.602876 0.040261
vt 0.575981 0.103074
vt 0.562284 0.109936
vt 0.497119 0.110610
vt 0.444655 0.109098
vt 0.133298 0.682581
vt 0.152584 0.707765
vt 0.426109 0.031602
vt 0.615416 0.063984
vt 0.177300 0.726342
vt 0.154201 0.613674
vt 0.149701 0.645373
vt 0.139501 0.609443
vt 0.242997 0.630052
vt 0.262364 0.646582
vt 0.306529 0.652297
vt 0.317917 0.639913
vt 0.347184 0.592437
vt 0.361702 0.625271
vt 0.360385 0.634358
vt 0.376752 0.660196
vt 0.330416 0.718333
vt 0.293822 0.724949
vt 0.259212 0.705192
vt 0.246539 0.718860
vt 0.194305 0.725740
vt 0.188696 0.718427
vt 0.187769 0.702239
vt 0.190160 0.662909
vt 0.179753 0.627685
vt 0.155797 0.548238
vt 0.169394 0.536896
vt 0.248900 0.563542
vt 0.125191 0.589671
vt 0.134697 0.549867
vt 0.144823 0.549424
vt 0.324239 0.528069
vt 0.351541 0.538415
vt 0.356093 0.547360
vt 0.355549 0.550007
vt 0.350846 0.550000
vt 0.262430 0.536023
vt 0.273713 0.523027
vt 0.203280 0.536761
vt 0.214380 0.515097
vt 0.245506 0.501535
vt 0.176875 0.509503
vt 0.453531 0.504739
vt 0.424864 0.475372
vt 0.427560 0.464180
vt 0.472749 0.451973
vt 0.529653 0.458264
vt 0.586542 0.454130
vt 0.536378 0.515992
vt 0.423463 0.489632
vt 0.551741 0.746241
vt 0.500709 0.769546
vt 0.472002 0.761196
vt 0.473258 0.744659
vt 0.453257 0.728323
vt 0.513397 0.220227
vt 0.580803 0.219199
vt 0.578004 0.234844
vt 0.463278 0.226579
vt 0.621262 0.940617
vt 0.616893 0.943770
vt 0.607898 0.948000
vt 0.602084 0.875039
vt 0.613245 0.570716
vt 0.626805 0.567332
vt 0.629431 0.700783
vt 0.593586 0.102646
vt 0.593462 0.134714
vt 0.583385 0.149797
vt 0.368689 0.593848
vt 0.396075 0.635264
vt 0.407244 0.638635
vt 0.383422 0.704001
vt 0.418074 0.692426
vt 0.417705 0.607613
vt 0.489266 0.323688
vt 0.432888 0.371984
vt 0.424867 0.285754
vt 0.568048 0.379480
vt 0.576997 0.434305
vt 0.426473 0.445117
vt 0.584293 0.422032
vt 0.590510 0.376753
vt 0.596626 0.372821
vt 0.608750 0.372734
vt 0.593311 0.480371
vt 0.575000 0.717795
vt 0.610173 0.193095
vt 0.600620 0.224380
vt 0.591981 0.203888
vt 0.156285 0.674487
vt 0.597326 0.874395
vt 0.529571 0.941752
vt 0.575320 0.870714
vt 0.585527 0.864249
vt 0.415571 0.209136
vt 0.420262 0.219330
vt 0.395844 0.211472
vt 0.403005 0.205939
vt 0.417838 0.727690
vt 0.575698 0.742354
vt 0.566791 0.269322
vt 0.481122 0.276455
vt 0.424792 0.243355
vt 0.577067 0.245406
vt 0.610289 0.805539
vt 0.593750 0.731250
vt 0.590020 0.726806
vt 0.588211 0.708044
vt 0.598827 0.705051
vt 0.605779 0.707927
vt 0.592499 0.802290
vt 0.633963 0.554674
vt 0.622363 0.547936
vt 0.610923 0.323474
vt 0.607347 0.363236
vt 0.566721 0.336594
vt 0.575000 0.250000
vt 0.576566 0.248434
vt 0.580953 0.244047
vt 0.589342 0.235658
vt 0.396564 0.707734
vt 0.381071 0.549236
vt 0.395940 0.542499
vt 0.564088 0.308226
vt 0.578525 0.246475
vt 0.430054 0.066345
vt 0.126483 0.631409
vt 0.594197 0.949800
vt 0.325896 0.727679
vt 0.323995 0.741057
vn -0.8599 -0.3827 -0.3378
vn -0.4593 0.0847 0.8842
vn 0.3099 -0.2489 0.9176
vn 0.3457 0.9340 0.0897
vn -0.2329 0.9689 -0.0835
vn 0.0019 0.9748 -0.2229
vn 0.9895 0.1118 0.0918
vn 0.9912 0.0919 0.0948
vn 0.8821 0.1176 -0.4561
vn 0.8010 0.1820 -0.5703
vn 0.2008 -0.1677 -0.9652
vn 0.3532 -0.2042 -0.9130
vn 0.5928 -0.0736 0.8020
vn 0.7076 -0.4037 0.5800
vn 0.6474 -0.4717 0.5987
vn -0.1814 0.9830 0.0279
vn -0.6065 0.6432 0.4674
vn -0.9052 0.0462 0.4225
vn -0.3891 0.8795 0.2741
vn -0.5186 -0.4849 0.7042
vn -0.7350 -0.6318 0.2463
vn -0.0217 -0.9913 0.1301
vn -0.9067 -0.3805 -0.1820
vn -0.7162 -0.6380 -0.2828
vn 0.1002 -0.9533 -0.2850
vn -0.2187 -0.7458 -0.6292
vn -0.0496 -0.3743 -0.9260
vn -0.1452 -0.5231 -0.8398
vn 0.8052 0.2109 -0.5543
vn 0.5473 0.0478 -0.8356
vn 0.7617 -0.0052 0.6479
vn 0.9501 0.0625 0.3056
vn 0.6087 -0.2912 0.7381
vn 0.6965 -0.3012 0.6513
vn -0.9644 0.0270 -0.2629
vn -0.8278 -0.3458 -0.4418
vn -0.2936 0.9157 0.2744
vn -0.3558 0.6815 0.6396
vn 0.8788 0.4654 0.1056
vn 0.7559 0.6525 0.0530
vn 0.9464 0.3050 0.1066
vn -0.4249 0.9004 -0.0932
vn -0.3810 0.9152 -0.1315
vn -0.9348 0.3391 0.1054
vn -0.9715 0.2079 -0.1137
vn 0.1540 -0.9502 -0.2708
vn 0.8037 -0.5809 -0.1289
vn 0.7474 -0.5331 0.3966
vn 0.9745 0.0150 0.2237
vn 0.9753 -0.2114 0.0634
vn -0.1869 -0.3732 -0.9087
vn 0.1484 -0.0571 -0.9873
vn 0.1209 0.0010 -0.9927
vn -0.1784 0.0329 0.9834
vn -0.1876 0.0051 0.9822
vn 0.3618 0.0862 0.9283
vn 0.0434 0.9684 -0.2455
vn 0.9808 0.0909 0.1725
vn 0.3281 0.8045 -0.4952
vn 0.2699 0.8011 -0.5342
vn 0.8969 0.2238 -0.3815
vn 0.9593 0.1436 0.2433
vn -0.6643 0.7460 -0.0471
vn -0.6309 -0.7348 0.2490
vn -0.4108 0.1235 0.9033
vn -0.6076 -0.7634 0.2191
vn -0.6644 -0.6990 -0.2647
vn -0.1370 -0.8703 -0.4730
vn -0.1975 -0.9020 -0.3838
vn -0.2337 -0.7105 -0.6637
vn 0.4358 -0.3005 0.8484
vn 0.4002 0.0761 0.9133
vn 0.8324 -0.3013 0.4651
vn 0.7198 -0.3144 0.6189
vn 0.7073 -0.0737 0.7031
vn -0.7467 -0.0680 -0.6617
vn -0.7813 -0.3490 -0.5174
vn -0.9564 0.0829 -0.2799
vn -0.9877 0.0677 -0.1412
vn 0.2692 0.8278 0.4923
vn 0.4281 0.6523 0.6255
vn 0.3602 -0.0169 0.9327
vn 0.5012 0.7731 -0.3887
vn 0.8774 0.3068 -0.3688
vn 0.9066 0.1853 -0.3792
vn 0.3377 -0.7246 0.6008
vn -0.9826 0.1567 -0.0996
vn -0.2186 0.9678 -0.1250
vn -0.2026 0.9692 -0.1400
vn -0.0611 0.8004 -0.5964
vn -0.2896 0.4818 -0.8271
vn 0.1096 0.1217 -0.9865
vn 0.4103 0.2345 -0.8813
vn 0.6507 -0.6533 0.3870
vn 0.7839 -0.4612 0.4157
vn 0.7832 -0.3386 0.5215
vn 0.8536 -0.5134 -0.0880
vn 0.8224 -0.3855 0.4185
vn 0.8618 -0.5073 0.0048
vn 0.8789 -0.0598 -0.4733
vn -0.3332 -0.0696 -0.9403
vn -0.1863 0.0577 -0.9808
vn 0.1540 -0.0549 -0.9865
vn -0.3313 0.3747 -0.8659
vn 0.4747 0.0612 -0.8780
vn -0.4467 -0.6677 0.5955
vn -0.9667 0.1321 -0.2191
vn -0.8181 -0.5428 0.1900
vn -0.3701 0.5621 0.7396
vn 0.2937 -0.5182 0.8032
vn 0.1348 -0.6837 0.7172
vn -0.3611 0.9243 -0.1235
vn 0.9655 -0.2567 0.0432
vn 0.7271 -0.6634 0.1769
usemtl Material
s off
f 57/1/1 42/2/1 22/3/1
f 32/4/2 130/5/2 45/6/2 62/7/2 60/8/2 61/9/2 44/10/2 40/11/2 99/12/2 100/13/2 87/14/2 86/15/2
f 10/16/3 41/17/3 58/18/3 59/19/3 60/8/3 62/7/3 45/6/3 130/5/3 129/20/3
f 119/21/4 120/22/4 63/23/4 64/24/4 65/25/4 66/26/4 111/27/4 114/28/4 7/29/4 80/30/4
f 112/31/5 111/32/5 66/26/5 65/25/5 64/24/5 138/33/5 12/34/5 19/35/5 131/36/5 133/37/5 85/38/5
f 138/39/6 64/24/6 46/40/6
f 68/41/7 48/42/7 47/43/7
f 78/44/8 5/45/8 105/46/8 69/47/8 67/48/8 124/49/8 123/50/8
f 73/51/9 124/49/9 67/48/9 68/41/9 37/52/9 97/53/9 1/54/9
f 73/55/10 70/56/10 72/57/10
f 3/58/11 75/59/11 2/60/11
f 3/58/12 4/61/12 75/59/12
f 79/62/13 81/63/13 102/64/13
f 10/65/14 8/66/14 9/67/14
f 10/65/15 11/68/15 8/66/15
f 19/69/16 18/70/16 131/71/16
f 113/72/17 85/38/17 132/73/17 26/74/17 84/75/17 83/76/17 27/77/17 28/78/17
f 83/76/18 84/75/18 136/79/18 56/80/18 55/81/18 54/82/18 33/83/18 89/84/18 87/85/18 100/13/18 99/12/18
f 85/38/19 113/72/19 112/86/19
f 86/15/20 88/87/20 32/4/20
f 21/88/21 91/89/21 92/90/21
f 50/91/22 52/92/22 53/93/22 51/94/22 146/95/22 147/96/22 148/97/22 150/98/22 8/66/22 11/99/22 126/100/22 125/101/22 127/102/22 128/103/22 31/104/22 30/105/22 35/106/22 90/107/22 21/88/22 20/108/22 25/109/22 34/110/22
f 92/90/23 54/82/23 57/111/23 22/112/23
f 92/90/24 22/112/24 20/113/24
f 74/114/25 75/59/25 4/61/25 77/115/25 76/116/25 152/117/25 149/118/25 146/95/25 51/94/25 53/93/25 52/92/25 50/91/25 34/110/25 93/119/25 96/120/25
f 96/120/26 93/119/26 94/121/26 95/122/26
f 95/122/27 36/123/27 2/60/27 75/59/27 74/114/27 96/120/27
f 95/122/28 24/124/28 36/123/28
f 37/52/29 98/125/29 97/53/29
f 3/126/30 2/127/30 38/128/30 39/129/30 71/130/30 70/56/30 73/55/30 1/131/30 97/53/30 98/125/30 4/132/30
f 105/46/31 5/45/31 102/133/31 101/134/31 103/135/31 104/136/31
f 104/136/32 106/137/32 105/46/32
f 103/135/33 10/16/33 104/136/33
f 104/136/34 10/16/34 106/137/34
f 109/138/35 43/139/35 15/140/35
f 110/141/36 22/3/36 42/2/36
f 112/142/37 113/143/37 28/144/37 114/28/37 111/27/37
f 28/144/38 115/145/38 114/28/38
f 123/50/39 122/146/39 121/147/39
f 121/147/40 120/22/40 119/21/40 80/30/40 6/148/40 78/44/40 123/50/40
f 123/50/41 124/49/41 122/146/41
f 85/38/42 134/149/42 132/73/42
f 85/38/43 133/37/43 134/149/43
f 134/149/44 135/150/44 137/151/44 56/80/44 136/79/44 84/75/44 26/74/44 132/73/44
f 137/151/45 43/139/45 56/80/45
f 146/95/46 149/152/46 147/96/46
f 149/152/47 151/153/47 147/96/47
f 150/98/48 153/154/48 8/155/48
f 153/154/49 48/42/49 49/156/49
f 47/43/50 48/42/50 154/157/50
f 156/158/51 36/159/51 24/160/51
f 144/161/52 145/162/52 39/129/52 38/128/52 36/159/52 156/158/52
f 36/159/53 38/128/53 2/163/53
f 59/19/54 61/9/54 60/8/54
f 59/19/55 44/10/55 61/9/55
f 41/17/56 101/134/56 58/18/56
f 46/40/57 64/24/57 63/23/57
f 67/48/58 69/47/58 105/46/58 106/137/58 49/156/58 48/42/58 68/41/58
f 72/57/59 71/130/59 143/164/59 142/165/59 141/166/59 140/167/59 138/33/59 46/40/59 63/23/59 120/22/59
f 72/57/60 70/56/60 71/130/60
f 122/168/61 73/55/61 72/57/61
f 78/44/62 79/62/62 5/169/62
f 18/170/63 17/171/63 16/172/63 137/151/63 135/150/63 133/37/63 131/36/63
f 87/14/64 89/84/64 29/173/64 35/106/64 30/105/64 31/104/64 88/87/64 86/15/64
f 116/174/65 27/77/65 83/76/65 99/12/65 40/175/65 44/10/65 118/176/65 117/177/65
f 21/88/66 90/107/66 35/106/66 29/173/66 91/89/66
f 21/88/67 92/90/67 20/113/67
f 34/110/68 25/109/68 94/121/68
f 34/110/69 94/121/69 93/119/69
f 22/178/70 23/179/70 24/124/70 95/122/70 94/121/70 25/180/70 20/181/70
f 41/17/71 10/16/71 103/135/71
f 41/17/72 103/135/72 101/134/72
f 106/137/73 9/182/73 49/156/73
f 106/137/74 10/16/74 9/182/74
f 79/183/75 102/133/75 5/45/75
f 107/184/76 108/185/76 24/160/76 23/186/76 110/141/76 109/138/76 15/140/76 14/187/76
f 22/3/77 110/141/77 23/186/77
f 109/138/78 110/141/78 42/2/78
f 56/80/79 43/139/79 109/138/79 42/2/79 57/1/79 54/82/79 55/81/79
f 7/188/80 114/28/80 115/145/80
f 7/188/81 115/145/81 116/174/81 117/189/81 82/190/81 81/63/81 79/62/81 78/191/81 6/192/81 80/193/81
f 102/64/82 81/63/82 82/194/82 117/177/82 118/176/82 44/10/82 59/19/82 58/18/82 101/134/82
f 120/22/83 121/147/83 72/195/83
f 72/196/84 121/147/84 122/146/84
f 73/51/85 122/146/85 124/49/85
f 125/101/86 126/100/86 127/102/86
f 137/151/87 16/172/87 43/139/87
f 12/197/88 138/33/88 139/198/88
f 138/33/89 140/167/89 139/198/89
f 140/167/90 141/166/90 139/198/90
f 141/166/91 142/165/91 143/164/91 144/161/91 13/199/91 107/200/91 14/201/91 15/202/91 16/203/91 17/171/91 18/70/91 19/69/91 12/197/91 139/198/91
f 143/164/92 145/162/92 144/161/92
f 143/164/93 71/130/93 145/162/93
f 148/97/94 151/153/94 150/98/94
f 8/155/95 153/154/95 9/204/95
f 150/98/96 151/153/96 153/154/96
f 152/205/97 47/43/97 154/157/97 151/153/97 149/152/97
f 153/154/98 49/156/98 9/204/98
f 152/205/99 76/206/99 47/43/99
f 37/52/100 68/41/100 47/43/100 76/116/100 77/115/100 4/132/100 98/125/100
f 108/185/101 107/184/101 155/207/101 156/158/101 24/160/101
f 155/207/102 13/199/102 156/158/102
f 156/158/103 13/199/103 144/161/103
f 155/207/104 107/184/104 13/199/104
f 39/129/105 145/162/105 71/130/105
f 88/87/106 31/104/106 128/103/106 32/4/106
f 43/208/107 16/203/107 15/202/107
f 33/209/108 54/210/108 92/90/108 91/89/108 29/173/108 89/84/108
f 28/144/109 27/211/109 116/174/109 115/145/109
f 126/100/110 11/212/110 10/213/110 129/20/110
f 128/103/111 127/102/111 126/100/111 129/20/111 130/5/111 32/4/111
f 135/150/112 134/149/112 133/37/112
f 153/154/113 151/153/113 154/157/113 48/42/113
f 147/96/114 151/153/114 148/97/114
