# Blender v2.92.0 OBJ File: ''
# www.blender.org
mtllib rock4.mtl
o Cube
v 0.219032 0.642067 1.186893
v 1.018457 0.579982 0.821694
v 1.036446 0.530871 0.987859
v 1.053791 0.486231 1.065807
v -0.581234 -0.739869 1.241370
v -0.793111 -0.500538 1.208271
v -0.968826 -0.578244 0.914128
v 0.469763 -0.967586 0.901232
v 0.407306 -0.942051 0.992896
v 0.374799 -1.035554 0.847297
v 0.438473 -1.021306 0.813935
v -0.559770 1.094174 -0.339088
v -0.086237 1.283160 -0.191198
v -0.270063 1.119348 -1.045551
v -0.382148 1.069443 -1.089321
v -0.510637 1.025814 -1.080895
v -0.628593 0.974505 -0.991339
v -0.619096 1.017363 -0.846868
v -0.592175 1.057165 -0.567455
v 0.719139 0.517263 -1.094909
v 0.592282 -0.072165 -1.260209
v 0.643777 0.574455 -1.177777
v 0.647469 0.671019 -1.114488
v 0.705353 0.690212 -0.986024
v 0.764919 0.526226 -0.969456
v -1.055365 -0.243887 -1.045819
v -1.090806 -0.474523 -0.832235
v -1.150617 -0.381596 -0.754042
v 0.319048 -0.576393 -1.190606
v 0.347994 -0.872116 -0.946740
v 0.250489 -1.012536 -0.933141
v 0.098674 -1.167335 -0.834214
v 0.012920 -0.528505 -1.413124
v 0.967937 0.245728 -0.106577
v 0.546395 -0.548359 -0.922185
v 0.813622 0.801983 -0.012368
v 0.772377 0.398418 1.293774
v 0.617490 0.746448 0.814595
v 0.288520 0.903820 0.851074
v -0.686222 -0.712933 -0.782474
v -0.054172 -1.069768 0.835079
v 0.337873 0.636789 -1.361672
v -0.393625 0.948516 -1.146187
v -0.866910 -0.979845 0.010257
v 0.008746 -1.260727 -0.480676
v -0.628243 0.909913 0.375443
v 0.738413 -0.048284 1.459501
v 0.694690 -0.177682 1.435424
v 0.435999 -0.737129 1.216347
v 0.868933 -0.392392 -0.290850
v 0.927167 -0.543578 0.572292
v 0.857328 -0.546601 -0.045705
v 0.901277 -0.592041 0.426230
v 0.072992 -0.104885 -1.559789
v -0.229316 0.020752 -1.459762
v -0.691416 0.178224 -1.333287
v 0.325191 0.389511 -1.447116
v -0.327453 -1.090149 0.300661
v -0.484520 -1.128730 -0.061419
v -0.362944 -1.153292 -0.215873
v -0.511877 -1.095479 -0.157515
v -0.203528 -1.196411 -0.336590
v -0.727338 0.680719 0.583814
v -0.765228 0.618451 0.593782
v -0.873330 0.362613 0.506280
v -1.015090 0.074074 0.366463
v 0.201687 0.207574 1.428946
v 0.634045 0.071168 1.469822
v -0.030824 -0.261835 1.340719
v -0.174547 0.892624 1.165009
v -0.154703 0.962587 1.053033
v -0.224558 0.821118 1.227777
v -0.170089 0.792615 1.243791
v 1.107150 0.498490 0.845783
v 1.105364 0.493837 0.936891
v 1.052627 0.208970 1.229407
v 1.043664 0.367213 1.183896
v -0.700307 -0.585317 1.267195
v -0.714449 -0.739038 1.213428
v -0.887728 -0.500211 1.082152
v -0.786238 -0.756362 1.148596
v -0.871670 -0.767751 1.005749
v -1.042949 -0.429168 -0.979524
v -1.018731 -0.336079 -1.056738
v -1.134305 -0.076061 -0.869578
v 0.018481 -0.973998 -1.168824
v 0.000100 -0.814753 -1.298784
v 0.121305 -1.010848 -1.065791
v 0.124310 -0.813742 -1.244198
v 0.695696 -0.250234 -0.986915
v 0.419051 -0.292233 -1.258291
v 0.484742 0.016850 -1.401272
v 1.015642 0.454110 0.059780
v 0.873372 0.482243 -0.477345
v 0.852357 0.633971 -0.383293
v 1.034477 0.580759 0.239572
v 0.527215 0.603139 1.149809
v 0.727178 0.563975 1.167509
v -0.603328 -0.622916 -0.985996
v -0.361074 -0.652988 -1.127117
v -0.215132 -0.967137 0.930805
v -0.453100 -0.818009 1.149262
v -0.031989 -1.033473 0.982268
v -0.013659 -0.987005 1.086358
v -0.180318 -0.788863 1.158679
v 0.129782 -0.932837 1.129843
v -0.133279 1.185390 -0.890264
v 0.371627 1.024706 -0.957738
v 0.041758 0.857175 -1.206468
v 0.347757 0.797671 -1.275570
v -1.181783 -0.236145 0.162159
v -1.192562 -0.210725 -0.560452
v -1.190331 -0.247429 -0.619770
v -1.262766 -0.451157 0.009390
v -1.222247 -0.649352 0.069736
v -1.204691 -0.697960 0.079156
v -1.103218 -0.843919 0.158334
v -1.021778 -0.903572 0.067201
v -0.696789 0.128310 1.067504
v -0.496071 0.529110 1.238569
v -0.391494 0.546816 1.346080
v -0.313985 0.473656 1.397981
v -0.475776 0.055049 1.311203
v -0.212542 0.397615 1.431376
v 0.521130 -1.014242 -0.125295
v 0.375165 -1.080740 0.262130
v 0.395712 -1.113711 -0.254884
v 0.199421 -1.081015 -0.877954
v 0.220272 -1.153884 0.002088
v 0.089117 -1.262535 -0.544575
v -0.779277 0.587525 -0.902809
v -1.058296 0.027501 -1.038827
v -0.863294 0.391941 -1.039941
v -0.951223 0.206776 -1.158391
v -0.815425 0.467635 -1.129048
v -0.827765 0.148784 -1.272855
v -0.684164 0.538428 -1.191146
v -0.611797 0.962687 0.294002
v -0.510295 1.169918 0.048052
v -0.520564 1.141173 0.180823
v -0.374983 1.251975 0.180817
v -0.325714 1.252957 0.233492
v -0.134098 1.144555 0.655425
v -0.087156 1.219897 0.149378
v -0.060574 1.120680 0.689141
v 0.997066 -0.171768 0.807946
v 0.968261 -0.429572 1.025771
v 0.946819 -0.471972 1.012130
v 1.005528 -0.188441 1.064589
v 0.696102 -0.692484 1.043380
v 0.788831 -0.488588 1.278008
v 1.056682 0.096266 1.164276
v 0.728908 -0.483806 1.316540
v 0.739461 -0.239847 1.394681
v -0.051061 1.250710 -0.476724
v 0.396539 1.112826 -0.572375
vt 0.442135 0.171568
vt 0.455809 0.203558
vt 0.426497 0.215526
vt 0.196693 0.734545
vt 0.220756 0.738186
vt 0.225486 0.745095
vt 0.456465 0.896858
vt 0.483770 0.890251
vt 0.506054 0.884593
vt 0.547999 0.877974
vt 0.535035 0.008416
vt 0.522480 0.019770
vt 0.489253 0.033007
vt 0.150349 0.716217
vt 0.167416 0.728008
vt 0.423361 0.759844
vt 0.466177 0.786169
vt 0.491567 0.838535
vt 0.502725 0.875305
vt 0.268549 0.736269
vt 0.659099 0.633127
vt 0.645279 0.577694
vt 0.716276 0.576972
vt 0.716048 0.587208
vt 0.719300 0.619322
vt 0.729610 0.659756
vt 0.622157 0.873712
vt 0.611488 0.881247
vt 0.606550 0.714743
vt 0.652513 0.700326
vt 0.796406 0.688615
vt 0.742277 0.697148
vt 0.618555 0.381569
vt 0.782552 0.550000
vt 0.808898 0.550000
vt 0.609959 0.152721
vt 0.600082 0.126902
vt 0.608781 0.070705
vt 0.750113 0.551719
vt 0.729813 0.550382
vt 0.447552 0.575854
vt 0.429012 0.604581
vt 0.425293 0.582368
vt 0.600985 0.701846
vt 0.574899 0.734795
vt 0.509757 0.720436
vt 0.519870 0.647079
vt 0.517244 0.580468
vt 0.592006 0.572202
vt 0.609514 0.629316
vt 0.604140 0.541818
vt 0.439381 0.526708
vt 0.488281 0.504654
vt 0.576599 0.486055
vt 0.586872 0.476874
vt 0.590111 0.463789
vt 0.595712 0.466249
vt 0.334181 0.525554
vt 0.330180 0.528759
vt 0.317965 0.519571
vt 0.341591 0.530201
vt 0.583024 0.718425
vt 0.585635 0.722638
vt 0.575000 0.726104
vt 0.395281 0.779719
vt 0.402811 0.772189
vt 0.411360 0.763640
vt 0.391679 0.783321
vt 0.613088 0.211911
vt 0.607456 0.217544
vt 0.617236 0.207764
vt 0.610994 0.052405
vt 0.601290 0.082608
vt 0.593477 0.056371
vt 0.582698 0.048486
vt 0.584310 0.034112
vt 0.592048 0.029181
vt 0.602876 0.040261
vt 0.575981 0.103074
vt 0.562284 0.109936
vt 0.497119 0.110610
vt 0.444655 0.109098
vt 0.133298 0.682581
vt 0.152584 0.707765
vt 0.426109 0.031602
vt 0.615416 0.063984
vt 0.177300 0.726342
vt 0.154201 0.613674
vt 0.149701 0.645373
vt 0.139501 0.609443
vt 0.242997 0.630052
vt 0.262364 0.646582
vt 0.306529 0.652297
vt 0.317917 0.639913
vt 0.347184 0.592437
vt 0.361702 0.625271
vt 0.360385 0.634358
vt 0.376752 0.660196
vt 0.330416 0.718333
vt 0.293822 0.724949
vt 0.259212 0.705192
vt 0.246539 0.718860
vt 0.194305 0.725740
vt 0.188696 0.718427
vt 0.187769 0.702239
vt 0.190160 0.662909
vt 0.179753 0.627685
vt 0.155797 0.548238
vt 0.169394 0.536896
vt 0.248900 0.563542
vt 0.125191 0.589671
vt 0.134697 0.549867
vt 0.144823 0.549424
vt 0.324239 0.528069
vt 0.351541 0.538415
vt 0.356093 0.547360
vt 0.355549 0.550007
vt 0.350846 0.550000
vt 0.262430 0.536023
vt 0.273713 0.523027
vt 0.203280 0.536761
vt 0.214380 0.515097
vt 0.245506 0.501535
vt 0.176875 0.509503
vt 0.453531 0.504739
vt 0.424864 0.475372
vt 0.427560 0.464180
vt 0.472749 0.451973
vt 0.529653 0.458264
vt 0.586542 0.454130
vt 0.536378 0.515992
vt 0.423463 0.489632
vt 0.551741 0.746241
vt 0.500709 0.769546
vt 0.472002 0.761196
vt 0.473258 0.744659
vt 0.453257 0.728323
vt 0.513397 0.220227
vt 0.580803 0.219199
vt 0.578004 0.234844
vt 0.463278 0.226579
vt 0.621262 0.940617
vt 0.616893 0.943770
vt 0.607898 0.948000
vt 0.602084 0.875039
vt 0.613245 0.570716
vt 0.626805 0.567332
vt 0.629431 0.700783
vt 0.593586 0.102646
vt 0.593462 0.134714
vt 0.583385 0.149797
vt 0.368689 0.593848
vt 0.396075 0.635264
vt 0.407244 0.638635
vt 0.383422 0.704001
vt 0.418074 0.692426
vt 0.417705 0.607613
vt 0.489266 0.323688
vt 0.432888 0.371984
vt 0.424867 0.285754
vt 0.568048 0.379480
vt 0.576997 0.434305
vt 0.426473 0.445117
vt 0.584293 0.422032
vt 0.590510 0.376753
vt 0.596626 0.372821
vt 0.608750 0.372734
vt 0.593311 0.480371
vt 0.575000 0.717795
vt 0.610173 0.193095
vt 0.600620 0.224380
vt 0.591981 0.203888
vt 0.156285 0.674487
vt 0.597326 0.874395
vt 0.529571 0.941752
vt 0.575320 0.870714
vt 0.585527 0.864249
vt 0.415571 0.209136
vt 0.420262 0.219330
vt 0.395844 0.211472
vt 0.403005 0.205939
vt 0.417838 0.727690
vt 0.575698 0.742354
vt 0.566791 0.269322
vt 0.481122 0.276455
vt 0.424792 0.243355
vt 0.577067 0.245406
vt 0.610289 0.805539
vt 0.593750 0.731250
vt 0.590020 0.726806
vt 0.588211 0.708044
vt 0.598827 0.705051
vt 0.605779 0.707927
vt 0.592499 0.802290
vt 0.633963 0.554674
vt 0.622363 0.547936
vt 0.610923 0.323474
vt 0.607347 0.363236
vt 0.566721 0.336594
vt 0.575000 0.250000
vt 0.576566 0.248434
vt 0.580953 0.244047
vt 0.589342 0.235658
vt 0.396564 0.707734
vt 0.381071 0.549236
vt 0.395940 0.542499
vt 0.564088 0.308226
vt 0.578525 0.246475
vt 0.430054 0.066345
vt 0.126483 0.631409
vt 0.594197 0.949800
vt 0.325896 0.727679
vt 0.323995 0.741057
vn 0.5358 0.2511 -0.8062
vn -0.4855 -0.7762 -0.4023
vn -0.0262 -0.9904 0.1355
vn -0.8940 0.2487 0.3728
vn -0.9021 0.4314 0.0121
vn -0.8382 0.5192 0.1672
vn -0.0810 -0.1558 0.9845
vn -0.0537 -0.1711 0.9838
vn 0.1450 0.4775 0.8666
vn 0.0944 0.6186 0.7800
vn 0.5643 0.8063 0.1772
vn 0.6096 0.7388 0.2875
vn -0.1658 -0.8914 0.4218
vn 0.3319 -0.8257 0.4562
vn 0.3866 -0.8408 0.3788
vn -0.9380 0.3442 0.0413
vn -0.9296 -0.0986 -0.3552
vn -0.3605 -0.3580 -0.8613
vn -0.9823 0.1405 -0.1239
vn 0.2368 -0.8156 -0.5280
vn 0.5556 -0.4434 -0.7034
vn 0.8752 -0.4503 -0.1768
vn 0.4732 0.0949 -0.8758
vn 0.7549 0.0469 -0.6542
vn 0.9884 -0.1318 -0.0758
vn 0.9373 0.2481 -0.2447
vn 0.7333 0.6778 -0.0545
vn 0.8332 0.5313 -0.1536
vn 0.0506 0.6144 0.7874
vn 0.3266 0.7978 0.5067
vn -0.1803 -0.7640 0.6194
vn -0.1128 -0.4230 0.8991
vn 0.1235 -0.9141 0.3863
vn 0.1826 -0.8625 0.4719
vn -0.0352 0.4280 -0.9031
vn 0.5326 0.3737 -0.7594
vn -0.9882 0.1436 -0.0534
vn -0.9558 -0.2449 -0.1627
vn -0.5352 0.0319 0.8441
vn -0.6877 0.1706 0.7057
vn -0.3511 -0.0580 0.9345
vn -0.8863 0.4458 -0.1252
vn -0.8758 0.4741 -0.0909
vn -0.6094 0.1552 -0.7775
vn -0.3585 0.3489 -0.8659
vn 0.9884 -0.1460 -0.0421
vn 0.8191 -0.2124 0.5329
vn 0.5517 -0.6934 0.4635
vn -0.0053 -0.3625 0.9320
vn 0.3876 -0.2936 0.8738
vn 0.7174 0.6786 -0.1577
vn 0.4435 0.8818 0.1602
vn 0.3768 0.9140 0.1507
vn -0.4186 -0.8884 -0.1882
vn -0.3879 -0.8996 -0.2008
vn -0.4135 -0.8769 0.2449
vn -0.8240 0.5324 0.1938
vn -0.0895 -0.2610 0.9612
vn -0.6132 0.6901 0.3843
vn -0.5996 0.7221 0.3449
vn -0.0297 0.4459 0.8946
vn -0.1972 -0.3075 0.9309
vn -0.8474 0.4055 -0.3429
vn 0.6417 -0.4707 -0.6055
vn -0.5277 -0.7726 -0.3530
vn 0.6750 -0.4514 -0.5836
vn 0.7950 -0.0010 -0.6067
vn 0.9759 0.0617 -0.2095
vn 0.9663 -0.0162 -0.2568
vn 0.9223 0.2948 -0.2499
vn 0.0709 -0.9709 0.2287
vn -0.3949 -0.8764 0.2756
vn 0.2856 -0.7243 0.6276
vn 0.2154 -0.8428 0.4932
vn -0.1187 -0.8325 0.5411
vn 0.2801 0.7354 -0.6170
vn 0.5621 0.4382 -0.7014
vn -0.1052 0.4743 -0.8741
vn -0.1544 0.3145 -0.9366
vn -0.9501 -0.1047 0.2940
vn -0.8660 -0.3126 0.3902
vn -0.2965 -0.9286 0.2232
vn -0.6220 0.5970 0.5067
vn -0.1456 0.4652 0.8732
vn 0.0224 0.4269 0.9040
vn 0.5710 -0.8175 0.0748
vn -0.2985 0.3104 -0.9025
vn -0.8868 0.4616 0.0230
vn -0.8810 0.4719 0.0340
vn -0.6009 0.7896 0.1245
vn -0.2577 0.9632 -0.0766
vn 0.2356 0.9578 0.1645
vn 0.1013 0.9026 0.4183
vn 0.6446 -0.6847 0.3402
vn 0.4789 -0.7053 0.5228
vn 0.2963 -0.7758 0.5571
vn 0.7583 -0.2351 0.6080
vn 0.4033 -0.6996 0.5898
vn 0.7182 -0.3286 0.6134
vn 0.3932 0.4053 0.8253
vn 0.4003 0.8902 -0.2177
vn 0.2790 0.9574 -0.0744
vn 0.4415 0.8820 0.1650
vn -0.1352 0.9825 -0.1283
vn 0.3141 0.8384 0.4455
vn 0.4595 -0.7523 -0.4721
vn -0.2044 0.4324 -0.8782
vn 0.4938 -0.3643 -0.7896
vn -0.8973 -0.3902 -0.2064
vn 0.3036 -0.9500 0.0735
vn 0.4707 -0.8800 -0.0643
vn -0.8809 0.4672 -0.0764
vn 0.4532 -0.2896 0.8431
vn 0.7515 -0.5133 0.4145
usemtl Material
s off
f 57/1/1 42/2/1 22/3/1
f 32/4/2 130/5/2 45/6/2 62/7/2 60/8/2 61/9/2 44/10/2 40/11/2 99/12/2 100/13/2 87/14/2 86/15/2
f 10/16/3 41/17/3 58/18/3 59/19/3 60/8/3 62/7/3 45/6/3 130/5/3 129/20/3
f 119/21/4 120/22/4 63/23/4 64/24/4 65/25/4 66/26/4 111/27/4 114/28/4 7/29/4 80/30/4
f 112/31/5 111/32/5 66/26/5 65/25/5 64/24/5 138/33/5 12/34/5 19/35/5 131/36/5 133/37/5 85/38/5
f 138/39/6 64/24/6 46/40/6
f 68/41/7 48/42/7 47/43/7
f 78/44/8 5/45/8 105/46/8 69/47/8 67/48/8 124/49/8 123/50/8
f 73/51/9 124/49/9 67/48/9 68/41/9 37/52/9 97/53/9 1/54/9
f 73/55/10 70/56/10 72/57/10
f 3/58/11 75/59/11 2/60/11
f 3/58/12 4/61/12 75/59/12
f 79/62/13 81/63/13 102/64/13
f 10/65/14 8/66/14 9/67/14
f 10/65/15 11/68/15 8/66/15
f 19/69/16 18/70/16 131/71/16
f 113/72/17 85/38/17 132/73/17 26/74/17 84/75/17 83/76/17 27/77/17 28/78/17
f 83/76/18 84/75/18 136/79/18 56/80/18 55/81/18 54/82/18 33/83/18 89/84/18 87/85/18 100/13/18 99/12/18
f 85/38/19 113/72/19 112/86/19
f 86/15/20 88/87/20 32/4/20
f 21/88/21 91/89/21 92/90/21
f 50/91/22 52/92/22 53/93/22 51/94/22 146/95/22 147/96/22 148/97/22 150/98/22 8/66/22 11/99/22 126/100/22 125/101/22 127/102/22 128/103/22 31/104/22 30/105/22 35/106/22 90/107/22 21/88/22 20/108/22 25/109/22 34/110/22
f 92/90/23 54/82/23 57/111/23 22/112/23
f 92/90/24 22/112/24 20/113/24
f 74/114/25 75/59/25 4/61/25 77/115/25 76/116/25 152/117/25 149/118/25 146/95/25 51/94/25 53/93/25 52/92/25 50/91/25 34/110/25 93/119/25 96/120/25
f 96/120/26 93/119/26 94/121/26 95/122/26
f 95/122/27 36/123/27 2/60/27 75/59/27 74/114/27 96/120/27
f 95/122/28 24/124/28 36/123/28
f 37/52/29 98/125/29 97/53/29
f 3/126/30 2/127/30 38/128/30 39/129/30 71/130/30 70/56/30 73/55/30 1/131/30 97/53/30 98/125/30 4/132/30
f 105/46/31 5/45/31 102/133/31 101/134/31 103/135/31 104/136/31
f 104/136/32 106/137/32 105/46/32
f 103/135/33 10/16/33 104/136/33
f 104/136/34 10/16/34 106/137/34
f 109/138/35 43/139/35 15/140/35
f 110/141/36 22/3/36 42/2/36
f 112/142/37 113/143/37 28/144/37 114/28/37 111/27/37
f 28/144/38 115/145/38 114/28/38
f 123/50/39 122/146/39 121/147/39
f 121/147/40 120/22/40 119/21/40 80/30/40 6/148/40 78/44/40 123/50/40
f 123/50/41 124/49/41 122/146/41
f 85/38/42 134/149/42 132/73/42
f 85/38/43 133/37/43 134/149/43
f 134/149/44 135/150/44 137/151/44 56/80/44 136/79/44 84/75/44 26/74/44 132/73/44
f 137/151/45 43/139/45 56/80/45
f 146/95/46 149/152/46 147/96/46
f 149/152/47 151/153/47 147/96/47
f 150/98/48 153/154/48 8/155/48
f 153/154/49 48/42/49 49/156/49
f 47/43/50 48/42/50 154/157/50
f 156/158/51 36/159/51 24/160/51
f 144/161/52 145/162/52 39/129/52 38/128/52 36/159/52 156/158/52
f 36/159/53 38/128/53 2/163/53
f 59/19/54 61/9/54 60/8/54
f 59/19/55 44/10/55 61/9/55
f 41/17/56 101/134/56 58/18/56
f 46/40/57 64/24/57 63/23/57
f 67/48/58 69/47/58 105/46/58 106/137/58 49/156/58 48/42/58 68/41/58
f 72/57/59 71/130/59 143/164/59 142/165/59 141/166/59 140/167/59 138/33/59 46/40/59 63/23/59 120/22/59
f 72/57/60 70/56/60 71/130/60
f 122/168/61 73/55/61 72/57/61
f 78/44/62 79/62/62 5/169/62
f 18/170/63 17/171/63 16/172/63 137/151/63 135/150/63 133/37/63 131/36/63
f 87/14/64 89/84/64 29/173/64 35/106/64 30/105/64 31/104/64 88/87/64 86/15/64
f 116/174/65 27/77/65 83/76/65 99/12/65 40/175/65 44/10/65 118/176/65 117/177/65
f 21/88/66 90/107/66 35/106/66 29/173/66 91/89/66
f 21/88/67 92/90/67 20/113/67
f 34/110/68 25/109/68 94/121/68
f 34/110/69 94/121/69 93/119/69
f 22/178/70 23/179/70 24/124/70 95/122/70 94/121/70 25/180/70 20/181/70
f 41/17/71 10/16/71 103/135/71
f 41/17/72 103/135/72 101/134/72
f 106/137/73 9/182/73 49/156/73
f 106/137/74 10/16/74 9/182/74
f 79/183/75 102/133/75 5/45/75
f 107/184/76 108/185/76 24/160/76 23/186/76 110/141/76 109/138/76 15/140/76 14/187/76
f 22/3/77 110/141/77 23/186/77
f 109/138/78 110/141/78 42/2/78
f 56/80/79 43/139/79 109/138/79 42/2/79 57/1/79 54/82/79 55/81/79
f 7/188/80 114/28/80 115/145/80
f 7/188/81 115/145/81 116/174/81 117/189/81 82/190/81 81/63/81 79/62/81 78/191/81 6/192/81 80/193/81
f 102/64/82 81/63/82 82/194/82 117/177/82 118/176/82 44/10/82 59/19/82 58/18/82 101/134/82
f 120/22/83 121/147/83 72/195/83
f 72/196/84 121/147/84 122/146/84
f 73/51/85 122/146/85 124/49/85
f 125/101/86 126/100/86 127/102/86
f 137/151/87 16/172/87 43/139/87
f 12/197/88 138/33/88 139/198/88
f 138/33/89 140/167/89 139/198/89
f 140/167/90 141/166/90 139/198/90
f 141/166/91 142/165/91 143/164/91 144/161/91 13/199/91 107/200/91 14/201/91 15/202/91 16/203/91 17/171/91 18/70/91 19/69/91 12/197/91 139/198/91
f 143/164/92 145/162/92 144/161/92
f 143/164/93 71/130/93 145/162/93
f 148/97/94 151/153/94 150/98/94
f 8/155/95 153/154/95 9/204/95
f 150/98/96 151/153/96 153/154/96
f 152/205/97 47/43/97 154/157/97 151/153/97 149/152/97
f 153/154/98 49/156/98 9/204/98
f 152/205/99 76/206/99 47/43/99
f 37/52/100 68/41/100 47/43/100 76/116/100 77/115/100 4/132/100 98/125/100
f 108/185/101 107/184/101 155/207/101 156/158/101 24/160/101
f 155/207/102 13/199/102 156/158/102
f 156/158/103 13/199/103 144/161/103
f 155/207/104 107/184/104 13/199/104
f 39/129/105 145/162/105 71/130/105
f 88/87/106 31/104/106 128/103/106 32/4/106
f 43/208/107 16/203/107 15/202/107
f 33/209/108 54/210/108 92/90/108 91/89/108 29/173/108 89/84/108
f 28/144/109 27/211/109 116/174/109 115/145/109
f 126/100/110 11/212/110 10/213/110 129/20/110
f 128/103/111 127/102/111 126/100/111 129/20/111 130/5/111 32/4/111
f 135/150/112 134/149/112 133/37/112
f 153/154/113 151/153/113 154/157/113 48/42/113
f 147/96/114 151/153/114 148/97/114
