# Blender v2.92.0 OBJ File: ''
# www.blender.org
mtllib rock3.mtl
o Cube
v 0.120206 -0.798159 -0.657862
v -0.693044 -0.582736 -0.758428
v -0.703353 -0.705620 -0.735665
v -0.722623 -0.765519 -0.709568
v 0.490502 -0.915202 0.630651
v 0.752712 -0.861319 0.487678
v 0.859871 -0.650802 0.612244
v -0.602535 -0.743637 0.605404
v -0.525442 -0.803501 0.591727
v -0.539032 -0.706564 0.685568
v -0.598940 -0.684752 0.662418
v 0.791617 0.359903 -0.730600
v 0.417994 0.248239 -1.000175
v 0.439854 0.849251 -0.761251
v 0.525763 0.881462 -0.692599
v 0.635247 0.877965 -0.629358
v 0.742634 0.815764 -0.568530
v 0.763475 0.716452 -0.616322
v 0.783645 0.520322 -0.675939
v -0.664615 0.785871 -0.493349
v -0.731291 0.859390 0.022800
v -0.587919 0.853107 -0.516214
v -0.556498 0.816199 -0.599740
v -0.589723 0.723916 -0.638045
v -0.689713 0.695442 -0.520470
v 0.794628 0.771902 0.513060
v 0.789342 0.602601 0.690419
v 0.881226 0.557863 0.622873
v -0.607704 0.780510 0.484917
v -0.688045 0.581135 0.698006
v -0.634222 0.564300 0.831931
v -0.522948 0.488329 0.983017
v -0.333966 0.957099 0.531901
v -0.853362 0.049901 -0.406245
v -0.780475 0.581561 0.390821
v -0.540585 0.037506 -0.827321
v -0.454952 -0.921139 -0.593435
v -0.270473 -0.544376 -0.802401
v 0.087253 -0.541155 -0.858498
v 0.348397 0.527725 0.788282
v -0.147153 -0.680194 0.809991
v -0.305595 1.003509 -0.483897
v 0.495599 0.912127 -0.588190
v 0.540425 -0.048486 0.982747
v -0.421326 0.233970 1.051164
v 0.891847 -0.159236 -0.621814
v -0.528190 -1.074828 -0.238580
v -0.526417 -1.066589 -0.122659
v -0.467421 -0.946060 0.402943
v -0.962210 0.131424 0.144383
v -0.953488 -0.496421 0.186739
v -0.964549 -0.054948 0.252385
v -0.960700 -0.395666 0.242836
v -0.289399 1.094062 0.188343
v 0.042162 1.048244 0.146969
v 0.536024 0.994027 0.113624
v -0.373625 1.043823 -0.275184
v 0.038285 -0.289708 0.928674
v 0.130580 -0.028588 1.022771
v -0.009482 0.073060 1.027282
v 0.153830 0.043702 1.009490
v -0.186165 0.147392 1.035690
v 0.946125 -0.321662 -0.430985
v 0.965452 -0.332177 -0.373095
v 0.984406 -0.286545 -0.135992
v 1.019376 -0.204951 0.139023
v 0.044148 -1.005756 -0.322441
v -0.395323 -1.067041 -0.312314
v 0.119896 -0.971691 0.114664
v 0.557644 -0.742558 -0.770123
v 0.544916 -0.658166 -0.822323
v 0.592241 -0.790726 -0.706145
v 0.535029 -0.807110 -0.696583
v -0.796301 -0.610970 -0.714433
v -0.784753 -0.675906 -0.717300
v -0.779340 -0.904950 -0.498446
v -0.732054 -0.858860 -0.620474
v 0.648944 -0.914739 0.530719
v 0.612453 -0.888916 0.661916
v 0.826218 -0.767286 0.518282
v 0.667074 -0.840945 0.696922
v 0.726607 -0.736478 0.736203
v 0.739052 0.708617 0.654508
v 0.732977 0.770095 0.580014
v 0.937552 0.664864 0.381874
v -0.434356 0.745878 0.870894
v -0.388301 0.852410 0.756666
v -0.528663 0.664740 0.869669
v -0.498007 0.807811 0.723877
v -0.844931 0.645511 0.122149
v -0.630134 0.847743 0.238749
v -0.622567 0.972141 -0.014035
v -0.819233 -0.052779 -0.597671
v -0.743577 0.337438 -0.547170
v -0.669675 0.284558 -0.672002
v -0.779294 -0.170512 -0.717803
v -0.184795 -0.789941 -0.692533
v -0.381477 -0.815408 -0.707038
v 0.270840 0.675723 0.712873
v 0.017499 0.761653 0.693817
v 0.044632 -0.731693 0.755888
v 0.336879 -0.862623 0.672076
v -0.139738 -0.782599 0.764443
v -0.131135 -0.853387 0.714877
v 0.089960 -0.879936 0.586872
v -0.245338 -0.886540 0.635801
v 0.348957 0.738113 -0.857019
v -0.178782 0.748151 -0.835201
v 0.053533 0.926262 -0.607271
v -0.259125 0.955558 -0.622404
v 1.063767 -0.078251 0.442050
v 0.992379 0.436998 0.479625
v 0.972695 0.475866 0.513277
v 1.060706 0.015828 0.645213
v 0.974372 -0.045678 0.791245
v 0.945381 -0.057313 0.825771
v 0.818769 -0.130688 0.914624
v 0.714324 -0.074996 0.951512
v 0.821597 -0.712931 -0.029845
v 0.766607 -0.810031 -0.410925
v 0.686529 -0.889817 -0.456856
v 0.599531 -0.936539 -0.419218
v 0.623291 -0.902603 -0.038980
v 0.486969 -0.971526 -0.383183
v -0.789839 -0.021882 0.710581
v -0.623861 -0.295315 0.766973
v -0.715856 0.067655 0.828770
v -0.598712 0.521816 0.894290
v -0.530799 -0.109601 0.880581
v -0.505176 0.275285 1.039574
v 0.786350 0.727487 -0.229768
v 0.874472 0.790026 0.294449
v 0.793516 0.812261 -0.042789
v 0.809574 0.884852 0.135229
v 0.758876 0.879570 -0.107635
v 0.663260 0.955217 0.163182
v 0.647832 0.923302 -0.189256
v 0.881230 -0.097795 -0.661752
v 0.813912 0.089314 -0.832524
v 0.831774 -0.006804 -0.817286
v 0.726134 -0.004423 -0.939136
v 0.686587 -0.044070 -0.955000
v 0.527892 -0.361730 -0.942967
v 0.442871 0.001348 -0.975211
v 0.456252 -0.391195 -0.942759
v -0.885802 -0.635506 -0.146704
v -0.904433 -0.810430 0.050742
v -0.897874 -0.803310 0.090759
v -0.866948 -0.819371 -0.154923
v -0.720450 -0.832080 0.322130
v -0.721503 -0.985728 0.118996
v -0.822799 -0.868472 -0.403501
v -0.659139 -1.009780 0.125571
v -0.590937 -1.045092 -0.079429
v 0.340803 0.446345 -0.959895
v -0.130153 0.481048 -0.941471
vt 0.442135 0.171568
vt 0.455809 0.203558
vt 0.426497 0.215526
vt 0.196693 0.734545
vt 0.220756 0.738186
vt 0.225486 0.745095
vt 0.456465 0.896858
vt 0.483770 0.890251
vt 0.506054 0.884593
vt 0.547999 0.877974
vt 0.535035 0.008416
vt 0.522480 0.019770
vt 0.489253 0.033007
vt 0.150349 0.716217
vt 0.167416 0.728008
vt 0.423361 0.759844
vt 0.466177 0.786169
vt 0.491567 0.838535
vt 0.502725 0.875305
vt 0.268549 0.736269
vt 0.659099 0.633127
vt 0.645279 0.577694
vt 0.716276 0.576972
vt 0.716048 0.587208
vt 0.719300 0.619322
vt 0.729610 0.659756
vt 0.622157 0.873712
vt 0.611488 0.881247
vt 0.606550 0.714743
vt 0.652513 0.700326
vt 0.796406 0.688615
vt 0.742277 0.697148
vt 0.618555 0.381569
vt 0.782552 0.550000
vt 0.808898 0.550000
vt 0.609959 0.152721
vt 0.600082 0.126902
vt 0.608781 0.070705
vt 0.750113 0.551719
vt 0.729813 0.550382
vt 0.447552 0.575854
vt 0.429012 0.604581
vt 0.425293 0.582368
vt 0.600985 0.701846
vt 0.574899 0.734795
vt 0.509757 0.720436
vt 0.519870 0.647079
vt 0.517244 0.580468
vt 0.592006 0.572202
vt 0.609514 0.629316
vt 0.604140 0.541818
vt 0.439381 0.526708
vt 0.488281 0.504654
vt 0.576599 0.486055
vt 0.586872 0.476874
vt 0.590111 0.463789
vt 0.595712 0.466249
vt 0.334181 0.525554
vt 0.330180 0.528759
vt 0.317965 0.519571
vt 0.341591 0.530201
vt 0.583024 0.718425
vt 0.585635 0.722638
vt 0.575000 0.726104
vt 0.395281 0.779719
vt 0.402811 0.772189
vt 0.411360 0.763640
vt 0.391679 0.783321
vt 0.613088 0.211911
vt 0.607456 0.217544
vt 0.617236 0.207764
vt 0.610994 0.052405
vt 0.601290 0.082608
vt 0.593477 0.056371
vt 0.582698 0.048486
vt 0.584310 0.034112
vt 0.592048 0.029181
vt 0.602876 0.040261
vt 0.575981 0.103074
vt 0.562284 0.109936
vt 0.497119 0.110610
vt 0.444655 0.109098
vt 0.133298 0.682581
vt 0.152584 0.707765
vt 0.426109 0.031602
vt 0.615416 0.063984
vt 0.177300 0.726342
vt 0.154201 0.613674
vt 0.149701 0.645373
vt 0.139501 0.609443
vt 0.242997 0.630052
vt 0.262364 0.646582
vt 0.306529 0.652297
vt 0.317917 0.639913
vt 0.347184 0.592437
vt 0.361702 0.625271
vt 0.360385 0.634358
vt 0.376752 0.660196
vt 0.330416 0.718333
vt 0.293822 0.724949
vt 0.259212 0.705192
vt 0.246539 0.718860
vt 0.194305 0.725740
vt 0.188696 0.718427
vt 0.187769 0.702239
vt 0.190160 0.662909
vt 0.179753 0.627685
vt 0.155797 0.548238
vt 0.169394 0.536896
vt 0.248900 0.563542
vt 0.125191 0.589671
vt 0.134697 0.549867
vt 0.144823 0.549424
vt 0.324239 0.528069
vt 0.351541 0.538415
vt 0.356093 0.547360
vt 0.355549 0.550007
vt 0.350846 0.550000
vt 0.262430 0.536023
vt 0.273713 0.523027
vt 0.203280 0.536761
vt 0.214380 0.515097
vt 0.245506 0.501535
vt 0.176875 0.509503
vt 0.453531 0.504739
vt 0.424864 0.475372
vt 0.427560 0.464180
vt 0.472749 0.451973
vt 0.529653 0.458264
vt 0.586542 0.454130
vt 0.536378 0.515992
vt 0.423463 0.489632
vt 0.551741 0.746241
vt 0.500709 0.769546
vt 0.472002 0.761196
vt 0.473258 0.744659
vt 0.453257 0.728323
vt 0.513397 0.220227
vt 0.580803 0.219199
vt 0.578004 0.234844
vt 0.463278 0.226579
vt 0.621262 0.940617
vt 0.616893 0.943770
vt 0.607898 0.948000
vt 0.602084 0.875039
vt 0.613245 0.570716
vt 0.626805 0.567332
vt 0.629431 0.700783
vt 0.593586 0.102646
vt 0.593462 0.134714
vt 0.583385 0.149797
vt 0.368689 0.593848
vt 0.396075 0.635264
vt 0.407244 0.638635
vt 0.383422 0.704001
vt 0.418074 0.692426
vt 0.417705 0.607613
vt 0.489266 0.323688
vt 0.432888 0.371984
vt 0.424867 0.285754
vt 0.568048 0.379480
vt 0.576997 0.434305
vt 0.426473 0.445117
vt 0.584293 0.422032
vt 0.590510 0.376753
vt 0.596626 0.372821
vt 0.608750 0.372734
vt 0.593311 0.480371
vt 0.575000 0.717795
vt 0.610173 0.193095
vt 0.600620 0.224380
vt 0.591981 0.203888
vt 0.156285 0.674487
vt 0.597326 0.874395
vt 0.529571 0.941752
vt 0.575320 0.870714
vt 0.585527 0.864249
vt 0.415571 0.209136
vt 0.420262 0.219330
vt 0.395844 0.211472
vt 0.403005 0.205939
vt 0.417838 0.727690
vt 0.575698 0.742354
vt 0.566791 0.269322
vt 0.481122 0.276455
vt 0.424792 0.243355
vt 0.577067 0.245406
vt 0.610289 0.805539
vt 0.593750 0.731250
vt 0.590020 0.726806
vt 0.588211 0.708044
vt 0.598827 0.705051
vt 0.605779 0.707927
vt 0.592499 0.802290
vt 0.633963 0.554674
vt 0.622363 0.547936
vt 0.610923 0.323474
vt 0.607347 0.363236
vt 0.566721 0.336594
vt 0.575000 0.250000
vt 0.576566 0.248434
vt 0.580953 0.244047
vt 0.589342 0.235658
vt 0.396564 0.707734
vt 0.381071 0.549236
vt 0.395940 0.542499
vt 0.564088 0.308226
vt 0.578525 0.246475
vt 0.430054 0.066345
vt 0.126483 0.631409
vt 0.594197 0.949800
vt 0.325896 0.727679
vt 0.323995 0.741057
vn -0.4210 0.8552 -0.3024
vn 0.1895 0.3999 0.8967
vn -0.1847 -0.2943 0.9377
vn 0.9387 -0.3446 -0.0071
vn 0.9712 0.1695 -0.1676
vn 0.9517 -0.0340 -0.3052
vn 0.0965 -0.9929 0.0691
vn 0.0743 -0.9945 0.0745
vn 0.0507 -0.8541 -0.5176
vn 0.1124 -0.7637 -0.6358
vn -0.2704 -0.1534 -0.9504
vn -0.3111 -0.2937 -0.9038
vn -0.0242 -0.5711 0.8205
vn -0.4047 -0.6647 0.6280
vn -0.4689 -0.5994 0.6487
vn 0.9907 0.1208 -0.0621
vn 0.7418 0.5222 0.4207
vn 0.1294 0.8746 0.4672
vn 0.9324 0.3065 0.1914
vn -0.4230 0.4801 0.7685
vn -0.6233 0.7089 0.3302
vn -0.9745 0.0539 0.2178
vn -0.4047 0.9040 -0.1377
vn -0.6792 0.7022 -0.2133
vn -0.9814 -0.0450 -0.1869
vn -0.8066 0.2384 -0.5409
vn -0.4680 0.0809 -0.8800
vn -0.6073 0.1705 -0.7759
vn 0.1455 -0.7694 -0.6220
vn -0.0492 -0.4918 -0.8693
vn 0.0282 -0.7447 0.6668
vn 0.0634 -0.9497 0.3066
vn -0.2625 -0.5747 0.7751
vn -0.2878 -0.6612 0.6928
vn 0.0424 0.9619 -0.2703
vn -0.3902 0.8217 -0.4154
vn 0.9582 0.2181 0.1851
vn 0.7706 0.2788 0.5730
vn 0.4884 -0.8713 0.0473
vn 0.6744 -0.7379 -0.0248
vn 0.3151 -0.9469 0.0648
vn 0.9226 0.3464 -0.1697
vn 0.9288 0.3063 -0.2087
vn 0.4261 0.8996 0.0960
vn 0.2619 0.9567 -0.1267
vn -0.9803 -0.0927 -0.1746
vn -0.6713 -0.7357 -0.0904
vn -0.5630 -0.6927 0.4507
vn 0.0007 -0.9747 0.2234
vn -0.2713 -0.9598 0.0724
vn -0.4615 0.2050 -0.8631
vn -0.1559 -0.1095 -0.9817
vn -0.0953 -0.0867 -0.9917
vn 0.1318 0.1380 0.9816
vn 0.1032 0.1475 0.9837
vn 0.1635 -0.3572 0.9196
vn 0.9424 -0.0696 -0.3273
vn 0.0813 -0.9838 0.1595
vn 0.7613 -0.3130 -0.5678
vn 0.7543 -0.2593 -0.6031
vn 0.1757 -0.8758 -0.4495
vn 0.1482 -0.9617 0.2305
vn 0.8043 0.5840 -0.1092
vn -0.7231 0.6040 0.3351
vn 0.2294 0.3517 0.9076
vn -0.7535 0.5819 0.3059
vn -0.7370 0.6493 -0.1877
vn -0.9126 0.1652 -0.3739
vn -0.9340 0.2177 -0.2833
vn -0.7753 0.2518 -0.5792
vn -0.2511 -0.4085 0.8775
vn 0.1505 -0.3926 0.9073
vn -0.3173 -0.8011 0.5074
vn -0.3069 -0.6838 0.6620
vn -0.0386 -0.6856 0.7270
vn -0.1097 0.7319 -0.6726
vn -0.3999 0.7733 -0.4921
vn 0.1033 0.9501 -0.2943
vn 0.1020 0.9845 -0.1423
vn 0.8731 -0.2827 0.3971
vn 0.7156 -0.4284 0.5517
vn 0.0563 -0.3517 0.9344
vn 0.7435 -0.4755 -0.4702
vn 0.2685 -0.8560 -0.4418
vn 0.1331 -0.8859 -0.4444
vn -0.6980 -0.2885 0.6555
vn 0.2067 0.9726 -0.1061
vn 0.9654 0.1578 -0.2077
vn 0.9643 0.1439 -0.2224
vn 0.7554 0.0367 -0.6542
vn 0.4310 0.2623 -0.8634
vn 0.0305 -0.0813 -0.9962
vn 0.1477 -0.3655 -0.9190
vn -0.6769 -0.5854 0.4463
vn -0.4894 -0.7368 0.4664
vn -0.3478 -0.7469 0.5667
vn -0.6029 -0.7958 -0.0562
vn -0.4123 -0.7835 0.4649
vn -0.5885 -0.8075 0.0409
vn -0.1480 -0.8428 -0.5174
vn -0.1481 0.3299 -0.9323
vn -0.0244 0.1901 -0.9815
vn -0.1538 -0.1147 -0.9814
vn 0.3203 0.3070 -0.8962
vn -0.0360 -0.4208 -0.9064
vn -0.6185 0.4178 0.6656
vn 0.1655 0.9581 -0.2336
vn -0.5395 0.7977 0.2694
vn 0.6623 0.2961 0.6883
vn -0.4703 -0.2637 0.8422
vn -0.6344 -0.1100 0.7652
vn 0.9363 0.2875 -0.2017
vn -0.3232 -0.9447 0.0552
vn -0.7168 -0.6567 0.2343
usemtl Material
s off
f 57/1/1 42/2/1 22/3/1
f 32/4/2 130/5/2 45/6/2 62/7/2 60/8/2 61/9/2 44/10/2 40/11/2 99/12/2 100/13/2 87/14/2 86/15/2
f 10/16/3 41/17/3 58/18/3 59/19/3 60/8/3 62/7/3 45/6/3 130/5/3 129/20/3
f 119/21/4 120/22/4 63/23/4 64/24/4 65/25/4 66/26/4 111/27/4 114/28/4 7/29/4 80/30/4
f 112/31/5 111/32/5 66/26/5 65/25/5 64/24/5 138/33/5 12/34/5 19/35/5 131/36/5 133/37/5 85/38/5
f 138/39/6 64/24/6 46/40/6
f 68/41/7 48/42/7 47/43/7
f 78/44/8 5/45/8 105/46/8 69/47/8 67/48/8 124/49/8 123/50/8
f 73/51/9 124/49/9 67/48/9 68/41/9 37/52/9 97/53/9 1/54/9
f 73/55/10 70/56/10 72/57/10
f 3/58/11 75/59/11 2/60/11
f 3/58/12 4/61/12 75/59/12
f 79/62/13 81/63/13 102/64/13
f 10/65/14 8/66/14 9/67/14
f 10/65/15 11/68/15 8/66/15
f 19/69/16 18/70/16 131/71/16
f 113/72/17 85/38/17 132/73/17 26/74/17 84/75/17 83/76/17 27/77/17 28/78/17
f 83/76/18 84/75/18 136/79/18 56/80/18 55/81/18 54/82/18 33/83/18 89/84/18 87/85/18 100/13/18 99/12/18
f 85/38/19 113/72/19 112/86/19
f 86/15/20 88/87/20 32/4/20
f 21/88/21 91/89/21 92/90/21
f 50/91/22 52/92/22 53/93/22 51/94/22 146/95/22 147/96/22 148/97/22 150/98/22 8/66/22 11/99/22 126/100/22 125/101/22 127/102/22 128/103/22 31/104/22 30/105/22 35/106/22 90/107/22 21/88/22 20/108/22 25/109/22 34/110/22
f 92/90/23 54/82/23 57/111/23 22/112/23
f 92/90/24 22/112/24 20/113/24
f 74/114/25 75/59/25 4/61/25 77/115/25 76/116/25 152/117/25 149/118/25 146/95/25 51/94/25 53/93/25 52/92/25 50/91/25 34/110/25 93/119/25 96/120/25
f 96/120/26 93/119/26 94/121/26 95/122/26
f 95/122/27 36/123/27 2/60/27 75/59/27 74/114/27 96/120/27
f 95/122/28 24/124/28 36/123/28
f 37/52/29 98/125/29 97/53/29
f 3/126/30 2/127/30 38/128/30 39/129/30 71/130/30 70/56/30 73/55/30 1/131/30 97/53/30 98/125/30 4/132/30
f 105/46/31 5/45/31 102/133/31 101/134/31 103/135/31 104/136/31
f 104/136/32 106/137/32 105/46/32
f 103/135/33 10/16/33 104/136/33
f 104/136/34 10/16/34 106/137/34
f 109/138/35 43/139/35 15/140/35
f 110/141/36 22/3/36 42/2/36
f 112/142/37 113/143/37 28/144/37 114/28/37 111/27/37
f 28/144/38 115/145/38 114/28/38
f 123/50/39 122/146/39 121/147/39
f 121/147/40 120/22/40 119/21/40 80/30/40 6/148/40 78/44/40 123/50/40
f 123/50/41 124/49/41 122/146/41
f 85/38/42 134/149/42 132/73/42
f 85/38/43 133/37/43 134/149/43
f 134/149/44 135/150/44 137/151/44 56/80/44 136/79/44 84/75/44 26/74/44 132/73/44
f 137/151/45 43/139/45 56/80/45
f 146/95/46 149/152/46 147/96/46
f 149/152/47 151/153/47 147/96/47
f 150/98/48 153/154/48 8/155/48
f 153/154/49 48/42/49 49/156/49
f 47/43/50 48/42/50 154/157/50
f 156/158/51 36/159/51 24/160/51
f 144/161/52 145/162/52 39/129/52 38/128/52 36/159/52 156/158/52
f 36/159/53 38/128/53 2/163/53
f 59/19/54 61/9/54 60/8/54
f 59/19/55 44/10/55 61/9/55
f 41/17/56 101/134/56 58/18/56
f 46/40/57 64/24/57 63/23/57
f 67/48/58 69/47/58 105/46/58 106/137/58 49/156/58 48/42/58 68/41/58
f 72/57/59 71/130/59 143/164/59 142/165/59 141/166/59 140/167/59 138/33/59 46/40/59 63/23/59 120/22/59
f 72/57/60 70/56/60 71/130/60
f 122/168/61 73/55/61 72/57/61
f 78/44/62 79/62/62 5/169/62
f 18/170/63 17/171/63 16/172/63 137/151/63 135/150/63 133/37/63 131/36/63
f 87/14/64 89/84/64 29/173/64 35/106/64 30/105/64 31/104/64 88/87/64 86/15/64
f 116/174/65 27/77/65 83/76/65 99/12/65 40/175/65 44/10/65 118/176/65 117/177/65
f 21/88/66 90/107/66 35/106/66 29/173/66 91/89/66
f 21/88/67 92/90/67 20/113/67
f 34/110/68 25/109/68 94/121/68
f 34/110/69 94/121/69 93/119/69
f 22/178/70 23/179/70 24/124/70 95/122/70 94/121/70 25/180/70 20/181/70
f 41/17/71 10/16/71 103/135/71
f 41/17/72 103/135/72 101/134/72
f 106/137/73 9/182/73 49/156/73
f 106/137/74 10/16/74 9/182/74
f 79/183/75 102/133/75 5/45/75
f 107/184/76 108/185/76 24/160/76 23/186/76 110/141/76 109/138/76 15/140/76 14/187/76
f 22/3/77 110/141/77 23/186/77
f 109/138/78 110/141/78 42/2/78
f 56/80/79 43/139/79 109/138/79 42/2/79 57/1/79 54/82/79 55/81/79
f 7/188/80 114/28/80 115/145/80
f 7/188/81 115/145/81 116/174/81 117/189/81 82/190/81 81/63/81 79/62/81 78/191/81 6/192/81 80/193/81
f 102/64/82 81/63/82 82/194/82 117/177/82 118/176/82 44/10/82 59/19/82 58/18/82 101/134/82
f 120/22/83 121/147/83 72/195/83
f 72/196/84 121/147/84 122/146/84
f 73/51/85 122/146/85 124/49/85
f 125/101/86 126/100/86 127/102/86
f 137/151/87 16/172/87 43/139/87
f 12/197/88 138/33/88 139/198/88
f 138/33/89 140/167/89 139/198/89
f 140/167/90 141/166/90 139/198/90
f 141/166/91 142/165/91 143/164/91 144/161/91 13/199/91 107/200/91 14/201/91 15/202/91 16/203/91 17/171/91 18/70/91 19/69/91 12/197/91 139/198/91
f 143/164/92 145/162/92 144/161/92
f 143/164/93 71/130/93 145/162/93
f 148/97/94 151/153/94 150/98/94
f 8/155/95 153/154/95 9/204/95
f 150/98/96 151/153/96 153/154/96
f 152/205/97 47/43/97 154/157/97 151/153/97 149/152/97
f 153/154/98 49/156/98 9/204/98
f 152/205/99 76/206/99 47/43/99
f 37/52/100 68/41/100 47/43/100 76/116/100 77/115/100 4/132/100 98/125/100
f 108/185/101 107/184/101 155/207/101 156/158/101 24/160/101
f 155/207/102 13/199/102 156/158/102
f 156/158/103 13/199/103 144/161/103
f 155/207/104 107/184/104 13/199/104
f 39/129/105 145/162/105 71/130/105
f 88/87/106 31/104/106 128/103/106 32/4/106
f 43/208/107 16/203/107 15/202/107
f 33/209/108 54/210/108 92/90/108 91/89/108 29/173/108 89/84/108
f 28/144/109 27/211/109 116/174/109 115/145/109
f 126/100/110 11/212/110 10/213/110 129/20/110
f 128/103/111 127/102/111 126/100/111 129/20/111 130/5/111 32/4/111
f 135/150/112 134/149/112 133/37/112
f 153/154/113 151/153/113 154/157/113 48/42/113
f 147/96/114 151/153/114 148/97/114
